<?xml version="1.0" standalone="no"?>
<!DOCTYPE svg PUBLIC "-//W3C//DTD SVG 20010904//EN"
 "http://www.w3.org/TR/2001/REC-SVG-20010904/DTD/svg10.dtd">
<svg version="1.0" xmlns="http://www.w3.org/2000/svg"
 width="182.000000pt" height="47.000000pt" viewBox="0 0 182.000000 47.000000"
 preserveAspectRatio="xMidYMid meet">

<g transform="translate(0.000000,47.000000) scale(0.100000,-0.100000)"
fill="#000000" stroke="none">
<path d="M182 368 c-40 -41 -43 -42 -48 -21 -7 26 -41 40 -57 24 -8 -8 -5 -11
10 -11 12 0 24 -4 27 -9 3 -4 13 -55 22 -112 9 -57 21 -110 27 -116 12 -16
237 -18 237 -3 0 6 -45 10 -114 10 -105 0 -114 1 -119 20 -3 11 -2 22 1 24 4
2 53 7 110 11 105 7 132 18 132 53 0 9 3 34 6 55 5 27 3 37 -7 37 -7 0 -30 16
-51 37 -31 30 -40 34 -53 23 -20 -17 -19 -34 1 -26 17 6 44 -9 44 -25 0 -22
-39 -6 -75 31 -21 22 -42 40 -45 40 -3 0 -24 -19 -48 -42z m88 -30 c0 -4 -20
-8 -45 -8 -25 0 -45 3 -45 7 0 4 10 17 22 30 l22 23 23 -22 c13 -12 23 -25 23
-30z m130 -47 c0 -16 -4 -41 -10 -55 -10 -27 -23 -31 -152 -41 l-76 -7 -6 29
c-3 15 -8 45 -12 66 l-6 37 131 0 131 0 0 -29z"/>
<path d="M740 240 c0 -102 1 -110 20 -110 16 0 19 8 22 58 3 49 6 57 23 57 17
0 20 -8 23 -57 3 -55 4 -58 29 -58 25 0 25 1 21 66 -5 76 -23 99 -70 88 -27
-5 -28 -4 -28 30 0 29 -4 36 -20 36 -19 0 -20 -7 -20 -110z"/>
<path d="M1447 336 c-9 -22 19 -42 37 -26 19 15 10 40 -14 40 -10 0 -20 -6
-23 -14z"/>
<path d="M582 324 c-12 -8 -22 -26 -22 -39 0 -25 34 -65 56 -65 6 0 22 -8 34
-18 20 -16 20 -19 7 -31 -12 -9 -21 -10 -36 -1 -12 6 -21 15 -21 20 0 6 -11
10 -25 10 -32 0 -32 -14 0 -45 17 -18 35 -25 63 -25 54 0 74 18 70 60 -3 31
-9 38 -50 58 -52 24 -64 52 -23 52 14 0 25 -4 25 -10 0 -5 11 -10 25 -10 15 0
25 6 25 14 0 22 -40 46 -75 46 -17 0 -41 -7 -53 -16z"/>
<path d="M926 269 c-20 -16 -26 -29 -26 -60 0 -92 113 -112 144 -25 11 30 -13
86 -41 97 -35 13 -47 11 -77 -12z m68 -35 c10 -25 7 -51 -7 -62 -26 -22 -55
25 -37 59 13 23 36 25 44 3z"/>
<path d="M1103 283 l-33 -4 0 -105 c0 -97 1 -104 20 -104 16 0 20 7 20 33 0
32 1 33 34 29 26 -3 37 1 50 19 35 51 6 142 -44 137 -8 -1 -30 -3 -47 -5z m55
-72 c4 -37 -14 -57 -35 -39 -14 11 -18 60 -6 72 17 16 38 -1 41 -33z"/>
<path d="M1543 275 c-13 -9 -23 -25 -23 -35 0 -21 36 -50 62 -50 10 0 18 -7
18 -15 0 -17 -25 -20 -35 -5 -10 15 -45 12 -45 -5 0 -30 70 -46 111 -25 11 6
19 21 19 36 0 21 -8 29 -40 41 -22 9 -40 20 -40 24 0 13 18 20 25 9 8 -12 55
-13 55 -1 0 31 -75 49 -107 26z"/>
<path d="M1696 267 c-68 -68 10 -172 95 -126 16 8 18 13 9 24 -9 11 -17 12
-32 4 -16 -9 -24 -7 -36 5 -15 15 -12 16 31 16 45 0 47 1 47 28 0 38 -19 60
-57 68 -26 5 -37 1 -57 -19z m65 -32 c0 -5 -9 -11 -21 -13 -20 -3 -27 8 -13
22 10 9 34 3 34 -9z"/>
<path d="M1239 208 c14 -59 21 -74 37 -76 16 -2 23 6 34 40 l13 43 14 -42 c18
-52 49 -60 59 -15 3 15 10 43 15 62 13 51 11 60 -11 60 -16 0 -21 -9 -27 -42
l-7 -43 -11 40 c-8 28 -18 41 -32 43 -16 2 -22 -5 -30 -40 l-10 -43 -8 43 c-6
34 -12 42 -30 42 l-22 0 16 -72z"/>
<path d="M1450 205 c0 -68 2 -75 20 -75 18 0 20 7 20 75 0 68 -2 75 -20 75
-18 0 -20 -7 -20 -75z"/>
<path d="M184 66 c-12 -31 0 -51 31 -51 27 0 30 3 30 30 0 25 -4 30 -28 33
-17 2 -29 -2 -33 -12z m53 -12 c3 -8 1 -20 -5 -26 -15 -15 -43 8 -35 28 7 19
32 18 40 -2z"/>
<path d="M334 66 c-12 -31 0 -51 31 -51 27 0 30 3 30 30 0 25 -4 30 -28 33
-17 2 -29 -2 -33 -12z m49 -10 c8 -20 -20 -43 -35 -28 -14 14 -3 42 16 42 7 0
16 -6 19 -14z"/>
</g>
</svg>
